<svg width="46" height="46" viewBox="0 0 46 46" fill="none" xmlns="http://www.w3.org/2000/svg">
<g clip-path="url(#clip0_1120_6403)">
<path d="M23 12.0859L6.59433 25.6107C6.59433 25.6298 6.58954 25.6579 6.57994 25.6961C6.57055 25.7341 6.56555 25.7617 6.56555 25.7813V39.4766C6.56555 39.971 6.74633 40.3996 7.1078 40.7604C7.46917 41.1215 7.89709 41.3032 8.39167 41.3032H19.3476V30.3466H26.6525V41.3036H37.6083C38.1028 41.3036 38.5313 41.1223 38.8922 40.7604C39.2537 40.4 39.4351 39.9711 39.4351 39.4766V25.7813C39.4351 25.7053 39.4247 25.648 39.4063 25.6107L23 12.0859Z" fill="white"/>
<path d="M45.6826 22.5292L39.4344 17.3363V5.69514C39.4344 5.42902 39.3489 5.21016 39.1772 5.03887C39.0069 4.86778 38.7881 4.78223 38.5213 4.78223H33.0433C32.7769 4.78223 32.5581 4.86778 32.3867 5.03887C32.2157 5.21016 32.1303 5.42912 32.1303 5.69514V11.2589L25.1686 5.43811C24.5606 4.94353 23.8377 4.69629 23.0006 4.69629C22.1636 4.69629 21.4408 4.94353 20.8322 5.43811L0.316989 22.5292C0.126813 22.6811 0.02258 22.8855 0.0031926 23.1424C-0.0160949 23.399 0.0503621 23.6232 0.202763 23.8132L1.97172 25.9247C2.12412 26.0958 2.32359 26.2004 2.57093 26.2387C2.79928 26.2579 3.02763 26.1911 3.25599 26.039L23 9.57544L42.7442 26.0389C42.8967 26.1716 43.0961 26.2379 43.3434 26.2379H43.4292C43.6761 26.2003 43.8752 26.095 44.0284 25.9243L45.7975 23.8131C45.9496 23.6227 46.0163 23.3989 45.9965 23.142C45.977 22.8858 45.8724 22.6814 45.6826 22.5292Z" fill="white"/>
</g>
<defs>
<clipPath id="clip0_1120_6403">
<rect width="46" height="46" fill="white"/>
</clipPath>
</defs>
</svg>
