<svg width="46" height="46" viewBox="0 0 46 46" fill="none" xmlns="http://www.w3.org/2000/svg">
<path d="M22.9999 26.679V25.3799H16.655V26.679L19.8274 30.4859L22.9999 26.679Z" fill="white"/>
<path d="M14.2006 27.7588L13.6145 33.6175L18.5468 31.4261L15.491 27.7588H14.2006Z" fill="white"/>
<path d="M25.4546 27.7588H24.1642L21.1084 31.4261L26.0407 33.6175L25.4546 27.7588Z" fill="white"/>
<path d="M27.7586 19.8279V13.2451C27.0313 14.0685 26.1371 14.7278 25.1355 15.179C24.1339 15.6303 23.0477 15.8632 21.9491 15.8624H17.706C16.6074 15.8632 15.5212 15.6303 14.5195 15.179C13.5179 14.7278 12.6237 14.0685 11.8965 13.2451V19.8279C11.8977 20.8792 12.3159 21.8872 13.0593 22.6306C13.8028 23.374 14.8107 23.7922 15.862 23.7934H23.793C24.8444 23.7922 25.8523 23.374 26.5957 22.6306C27.3391 21.8872 27.7573 20.8792 27.7586 19.8279Z" fill="white"/>
<path d="M28.5517 6.3457H11.1034C10.6654 6.3457 10.3103 6.70079 10.3103 7.13881V8.72502C10.3103 9.16305 10.6654 9.51813 11.1034 9.51813H28.5517C28.9897 9.51813 29.3448 9.16305 29.3448 8.72502V7.13881C29.3448 6.70079 28.9897 6.3457 28.5517 6.3457Z" fill="white"/>
<path d="M29.345 14.2759C29.7657 14.2759 30.1691 14.1088 30.4666 13.8114C30.7641 13.5139 30.9312 13.1104 30.9312 12.6897C30.9312 12.269 30.7641 11.8656 30.4666 11.5681C30.1691 11.2706 29.7657 11.1035 29.345 11.1035V14.2759Z" fill="white"/>
<path d="M27.7586 2.37932C27.7586 1.74829 27.5079 1.1431 27.0617 0.696887C26.6155 0.250678 26.0103 0 25.3793 0H14.2759C13.6448 0 13.0396 0.250678 12.5934 0.696887C12.1472 1.1431 11.8965 1.74829 11.8965 2.37932V4.75864H27.7586V2.37932Z" fill="white"/>
<path d="M17.706 14.2759H21.9491C23.0474 14.2757 24.1256 13.9813 25.0716 13.4235C26.0177 12.8656 26.797 12.0645 27.3288 11.1035H12.3264C12.8581 12.0645 13.6375 12.8656 14.5835 13.4235C15.5296 13.9813 16.6078 14.2757 17.706 14.2759Z" fill="white"/>
<path d="M27.7586 27.7588H27.0448L27.7507 34.8174C27.7645 34.9555 27.7419 35.0948 27.685 35.2214C27.6282 35.348 27.5391 35.4574 27.4268 35.5388C27.3144 35.6202 27.1826 35.6707 27.0446 35.6852C26.9066 35.6998 26.7672 35.6778 26.6403 35.6217L20.6207 32.9449V41.2416H19.0345V32.9449L13.0117 35.6217C12.8848 35.6778 12.7454 35.6998 12.6074 35.6852C12.4694 35.6707 12.3376 35.6202 12.2252 35.5388C12.1129 35.4574 12.0238 35.348 11.967 35.2214C11.9101 35.0948 11.8875 34.9555 11.9013 34.8174L12.6103 27.7588H11.8966C8.74249 27.7624 5.71862 29.0169 3.48836 31.2472C1.2581 33.4774 0.00356855 36.5013 0 39.6554V46.0002H7.93103V40.4485H9.51724V46.0002H30.1379V40.4485H31.7241V46.0002H39.6552V39.6554C39.6516 36.5013 38.3971 33.4774 36.1668 31.2472C33.9365 29.0169 30.9127 27.7624 27.7586 27.7588ZM23 39.6554H21.4138V38.0692H23V39.6554ZM23 36.483H21.4138V34.8968H23V36.483Z" fill="white"/>
<path d="M42.3318 11.2778L45.9999 8.3441V3.50139L43.6206 1.12207V3.96615C43.6206 4.17648 43.537 4.37818 43.3882 4.52688L41.802 6.11309C41.6533 6.26184 41.4516 6.34543 41.2413 6.34547H39.6551C39.4448 6.34543 39.2431 6.26184 39.0944 6.11309L37.5082 4.52688C37.3594 4.37818 37.2758 4.17648 37.2758 3.96615V1.12207L34.8965 3.50139V8.3441L38.5646 11.2786C38.6573 11.3529 38.7322 11.447 38.7837 11.5541C38.8352 11.6611 38.8619 11.7784 38.862 11.8972V21.4145C38.862 21.5334 38.8353 21.6509 38.7839 21.7581C38.7324 21.8653 38.6574 21.9596 38.5646 22.0339L34.8965 24.9676V28.2352C35.7572 28.7702 36.5553 29.3998 37.2758 30.1125V29.3456C37.2758 29.1352 37.3594 28.9335 37.5082 28.7848L39.0944 27.1986C39.2431 27.0499 39.4448 26.9663 39.6551 26.9663H41.2413C41.4516 26.9663 41.6533 27.0499 41.802 27.1986L43.3882 28.7848C43.537 28.9335 43.6206 29.1352 43.6206 29.3456V32.1897L45.9999 29.8103V24.9676L42.3318 22.0331C42.2391 21.9589 42.1642 21.8647 42.1127 21.7577C42.0613 21.6506 42.0345 21.5333 42.0344 21.4145V11.8972C42.0344 11.7783 42.0611 11.6609 42.1126 11.5536C42.164 11.4464 42.239 11.3521 42.3318 11.2778Z" fill="white"/>
<path d="M10.3103 14.2759V11.1035C9.88964 11.1035 9.48618 11.2706 9.18871 11.5681C8.89124 11.8656 8.72412 12.269 8.72412 12.6897C8.72412 13.1104 8.89124 13.5139 9.18871 13.8114C9.48618 14.1088 9.88964 14.2759 10.3103 14.2759Z" fill="white"/>
</svg>
