<svg width="20" height="22" viewBox="0 0 20 22" fill="none" xmlns="http://www.w3.org/2000/svg">
<path d="M9.99125 12.5028C9.65965 12.5028 9.34164 12.3711 9.10717 12.1366C8.87269 11.9021 8.74097 11.5841 8.74097 11.2525V1.25028C8.74097 0.918684 8.87269 0.600671 9.10717 0.366198C9.34164 0.131726 9.65965 0 9.99125 0C10.3228 0 10.6409 0.131726 10.8753 0.366198C11.1098 0.600671 11.2415 0.918684 11.2415 1.25028V11.2525C11.2415 11.5841 11.1098 11.9021 10.8753 12.1366C10.6409 12.3711 10.3228 12.5028 9.99125 12.5028Z" fill="white"/>
<path d="M9.9911 21.2548C7.86361 21.2524 5.79229 20.5717 4.0781 19.3116C2.36391 18.0516 1.09616 16.2777 0.459041 14.2479C-0.178076 12.218 -0.151366 10.0379 0.535291 8.02427C1.22195 6.01064 2.53278 4.2684 4.27733 3.05071C4.41141 2.94676 4.56526 2.87119 4.72948 2.82861C4.89371 2.78602 5.06489 2.7773 5.23259 2.80298C5.4003 2.82866 5.56102 2.88821 5.70498 2.97799C5.84893 3.06778 5.97311 3.18592 6.06994 3.32523C6.16678 3.46454 6.23425 3.6221 6.26825 3.78832C6.30225 3.95454 6.30206 4.12593 6.2677 4.29208C6.23333 4.45822 6.16552 4.61563 6.06837 4.75473C5.97123 4.89382 5.8468 5.01169 5.70264 5.10116C4.39243 6.01404 3.4077 7.32121 2.89176 8.83244C2.37582 10.3437 2.35559 11.9801 2.83401 13.5036C3.31242 15.0272 4.26452 16.3583 5.55177 17.3033C6.83901 18.2483 8.39422 18.7578 9.9911 18.7578C11.588 18.7578 13.1432 18.2483 14.4304 17.3033C15.7177 16.3583 16.6698 15.0272 17.1482 13.5036C17.6266 11.9801 17.6064 10.3437 17.0904 8.83244C16.5745 7.32121 15.5898 6.01404 14.2796 5.10116C14.0264 4.9049 13.8582 4.61893 13.8097 4.30228C13.7612 3.98562 13.8361 3.66243 14.0189 3.39939C14.2018 3.13635 14.4786 2.95353 14.7923 2.88865C15.106 2.82377 15.4327 2.88178 15.7049 3.05071C17.4494 4.2684 18.7602 6.01064 19.4469 8.02427C20.1336 10.0379 20.1603 12.218 19.5232 14.2479C18.886 16.2777 17.6183 18.0516 15.9041 19.3116C14.1899 20.5717 12.1186 21.2524 9.9911 21.2548Z" fill="white"/>
</svg>
